<?xml version="1.0" encoding="UTF-8"?>
<svg width="464px" height="464px" viewBox="0 0 464 464" version="1.1" xmlns="http://www.w3.org/2000/svg" xmlns:xlink="http://www.w3.org/1999/xlink">
    <title>pieces/black-queen</title>
    <g id="pieces/black-queen" stroke="none" stroke-width="1" fill="none" fill-rule="evenodd">
        <circle id="Oval" fill="#212121" cx="61.8666667" cy="131.733333" r="28.3555556"></circle>
        <circle id="Oval" fill="#212121" cx="144.355556" cy="100.8" r="28.3555556"></circle>
        <circle id="Oval" fill="#212121" cx="232" cy="90.4888889" r="28.3555556"></circle>
        <circle id="Oval" fill="#212121" cx="319.644444" cy="100.8" r="28.3555556"></circle>
        <circle id="Oval" fill="#212121" cx="402.133333" cy="131.733333" r="28.3555556"></circle>
        <path d="M92.8,276.088889 C180.444444,260.622222 309.333333,260.622222 371.2,276.088889 L396.977778,147.2 L319.644444,265.777778 L316.551111,120.391111 L262.933333,260.622222 L232,111.111111 L201.066667,260.622222 L147.448889,120.391111 L144.355556,265.777778 L67.0222222,147.2 L92.8,276.088889 Z" id="Path" stroke="#212121" stroke-width="15.4666667" fill="#212121" stroke-linejoin="round"></path>
        <path d="M92.8,276.088889 C92.8,296.711111 108.266667,296.711111 118.577778,317.333333 C128.888889,332.8 128.888889,327.644444 123.733333,353.422222 C108.266667,363.733333 113.422222,379.2 113.422222,379.2 C97.9555556,394.666667 113.422222,404.977778 113.422222,404.977778 C180.444444,415.288889 283.555556,415.288889 350.577778,404.977778 C350.577778,404.977778 366.044444,394.666667 350.577778,379.2 C350.577778,379.2 355.733333,363.733333 340.266667,353.422222 C335.111111,327.644444 335.111111,332.8 345.422222,317.333333 C355.733333,296.711111 371.2,296.711111 371.2,276.088889 C283.555556,260.622222 180.444444,260.622222 92.8,276.088889 Z" id="Path" stroke="#212121" stroke-width="15.4666667" fill="#212121" stroke-linejoin="round"></path>
        <path d="M113.422222,404.977778 C190.2169,431.693601 273.7831,431.693601 350.577778,404.977778" id="Path" stroke="#000000" stroke-width="15.4666667" stroke-linejoin="round"></path>
        <path d="M113.422222,307.022222 C190.2169,280.306399 273.7831,280.306399 350.577778,307.022222" id="Path" stroke="#F2F2F2" stroke-width="15.4666667" stroke-linecap="round" stroke-linejoin="round"></path>
        <line x1="128.888889" y1="332.8" x2="335.111111" y2="332.8" id="Path" stroke="#F2F2F2" stroke-width="15.4666667" stroke-linecap="round" stroke-linejoin="round"></line>
        <path d="M118.577778,363.733333 C192.227033,388.115737 271.772967,388.115737 345.422222,363.733333" id="Path" stroke="#F2F2F2" stroke-width="15.4666667" stroke-linecap="round" stroke-linejoin="round"></path>
        <path d="M108.266667,394.666667 C188.177498,423.832477 275.822502,423.832477 355.733333,394.666667" id="Path" stroke="#F2F2F2" stroke-width="15.4666667" stroke-linecap="round" stroke-linejoin="round"></path>
    </g>
</svg>