<?xml version="1.0" encoding="UTF-8"?>
<svg width="464px" height="464px" viewBox="0 0 464 464" version="1.1" xmlns="http://www.w3.org/2000/svg" xmlns:xlink="http://www.w3.org/1999/xlink">
    <title>pieces/black-knight</title>
    <g id="pieces/black-knight" stroke="none" stroke-width="1" fill="none" fill-rule="evenodd">
        <path d="M226.844444,103.111111 C335.111111,113.422222 396.977778,185.6 391.822222,402.133333 L154.666667,402.133333 C154.666667,309.333333 257.777778,335.111111 237.155556,185.6" id="Path-Copy-2" stroke="#212121" stroke-width="15.4666667" fill="#212121" fill-rule="nonzero" stroke-linecap="round" stroke-linejoin="round"></path>
        <path d="M247.466667,185.6 C251.384889,215.605333 190.24,261.592889 164.977778,278.4 C134.044444,299.022222 136,316 113.422222,319.644444 C124,320 88,320 100,320 C89.6888889,320 61.8357333,319.644444 61.8658147,268.088889 C61.8658147,247.466667 123.733333,144.355556 123.733333,144.355556 C123.733333,144.355556 143.221333,124.764444 144.355556,108.266667 C136.828444,98.0174222 139.2,87.6444444 139.2,77.3333333 C149.511111,67.0222222 170.133333,103.111111 170.133333,103.111111 L190.755556,103.111111 C190.755556,103.111111 198.798222,82.5713778 216.533333,72.1777778 C226.844444,72.1777778 226.844444,103.111111 226.844444,103.111111" id="Path-Copy" stroke="#212121" stroke-width="15.4666667" fill="#212121" fill-rule="nonzero" stroke-linecap="round" stroke-linejoin="round"></path>
        <path d="M253.137778,104.924444 L248.497778,119.875556 L253.653333,121.422222 C286.133333,131.733333 311.911111,147.096889 335.111111,191.022222 C358.311111,234.947556 368.622222,297.329778 363.466667,399.822222 L362.951111,404.977778 L386.151111,404.977778 L386.666667,399.822222 C391.822222,296.092444 377.592889,226.08 353.155556,179.783111 C328.718222,133.486222 293.454222,111.317333 258.396444,105.955556 L253.137778,104.924444 Z" id="Path" fill="#F2F2F2" fill-rule="nonzero"></path>
        <path d="M97.9555556,270.933333 C97.9555556,273.780668 95.6473347,276.088889 92.8,276.088889 C89.9526653,276.088889 87.6444444,273.780668 87.6444444,270.933333 C87.6444444,268.085999 89.9526653,265.777778 92.8,265.777778 C95.6473347,265.777778 97.9555556,268.085999 97.9555556,270.933333 Z" id="Path" stroke="#F2F2F2" stroke-width="15.4666667" fill="#F2F2F2" fill-rule="nonzero" stroke-linecap="round" stroke-linejoin="round"></path>
        <path d="M154.666553,167.822222 C154.666553,176.364038 152.358383,183.288549 149.511111,183.288549 C146.663839,183.288549 144.355669,176.364038 144.355669,167.822222 C144.355669,159.280406 146.663839,152.355896 149.511111,152.355896 C152.358383,152.355896 154.666553,159.280406 154.666553,167.822222 L154.666553,167.822222 Z" id="Path" stroke="#F2F2F2" stroke-width="15.4663264" fill="#F2F2F2" fill-rule="nonzero" stroke-linecap="round" stroke-linejoin="round" transform="translate(149.511111, 167.822222) rotate(30.000728) translate(-149.511111, -167.822222) "></path>
    </g>
</svg>