<?xml version="1.0" encoding="UTF-8"?>
<svg width="464px" height="464px" viewBox="0 0 464 464" version="1.1" xmlns="http://www.w3.org/2000/svg" xmlns:xlink="http://www.w3.org/1999/xlink">
    <title>pieces/black-bishop</title>
    <g id="pieces/black-bishop" stroke="none" stroke-width="1" fill="none" fill-rule="evenodd">
        <path d="M92.8,389.511111 C127.754667,379.509333 197.045333,393.944889 232,368.888889 C266.954667,393.944889 336.245333,379.509333 371.2,389.511111 C371.2,389.511111 388.213333,395.079111 402.133333,410.133333 C395.121778,420.135111 385.12,420.341333 371.2,415.288889 C336.245333,405.287111 266.954667,420.032 232,404.977778 C197.045333,420.032 127.754667,405.287111 92.8,415.288889 C78.88,420.341333 68.8782222,420.135111 61.8666667,410.133333 C75.7866667,395.079111 92.8,389.511111 92.8,389.511111 Z" id="Path" stroke="#212121" stroke-width="15.4666667" fill="#212121" fill-rule="nonzero" stroke-linejoin="round"></path>
        <path d="M154.666667,348.266667 C180.444444,374.044444 283.555556,374.044444 309.333333,348.266667 C314.488889,332.8 309.333333,327.644444 309.333333,327.644444 C309.333333,301.866667 283.555556,286.4 283.555556,286.4 C340.266667,270.933333 345.422222,167.822222 232,126.577778 C118.577778,167.822222 123.733333,270.933333 180.444444,286.4 C180.444444,286.4 154.666667,301.866667 154.666667,327.644444 C154.666667,327.644444 149.511111,332.8 154.666667,348.266667 Z" id="Path" stroke="#212121" stroke-width="15.4666667" fill="#212121" fill-rule="nonzero" stroke-linejoin="round"></path>
        <path d="M257.777778,100.8 C257.777778,115.036674 246.236674,126.577778 232,126.577778 C217.763326,126.577778 206.222222,115.036674 206.222222,100.8 C206.222222,86.5633264 217.763326,75.0222222 232,75.0222222 C246.236674,75.0222222 257.777778,86.5633264 257.777778,100.8 Z" id="Path" stroke="#212121" stroke-width="15.4666667" fill="#212121" fill-rule="nonzero" stroke-linejoin="round"></path>
        <path d="M180.444444,286.4 L283.555556,286.4 M154.666667,327.644444 L309.333333,327.644444 M232,178.133333 L232,229.688889 M206.222222,203.911111 L257.777778,203.911111" id="Shape" stroke="#F2F2F2" stroke-width="15.4666667" stroke-linecap="round"></path>
    </g>
</svg>