<?xml version="1.0" encoding="UTF-8"?>
<svg width="464px" height="464px" viewBox="0 0 464 464" version="1.1" xmlns="http://www.w3.org/2000/svg" xmlns:xlink="http://www.w3.org/1999/xlink">
    <title>pieces/black-king</title>
    <g id="pieces/black-king" stroke="none" stroke-width="1" fill="none" fill-rule="evenodd">
        <line x1="232" y1="117.607111" x2="232" y2="59.5555556" id="path6570" stroke="#212121" stroke-width="15.4666667" stroke-linecap="round"></line>
        <path d="M232,255.466667 C232,255.466667 278.4,178.133333 262.933333,147.2 C262.933333,147.2 252.622222,121.422222 232,121.422222 C211.377778,121.422222 201.066667,147.2 201.066667,147.2 C185.6,178.133333 232,255.466667 232,255.466667" id="Path" stroke="#212121" stroke-width="15.4666667" fill="#212121" fill-rule="nonzero"></path>
        <path d="M128.888889,379.2 C185.6,415.288889 278.4,415.288889 335.111111,379.2 L335.111111,307.022222 C335.111111,307.022222 427.911111,260.622222 396.977778,198.755556 C355.733333,131.733333 257.777778,162.666667 232,240 L232,276.088889 L232,240 C206.222222,162.666667 108.266667,131.733333 67.0222222,198.755556 C36.0888889,260.622222 128.888889,307.022222 128.888889,307.022222 L128.888889,379.2" id="Path" stroke="#212121" stroke-width="15.4666667" fill="#212121" fill-rule="nonzero" stroke-linecap="round" stroke-linejoin="round"></path>
        <line x1="206.222222" y1="80.1777778" x2="257.777778" y2="80.1777778" id="Path" stroke="#212121" stroke-width="15.4666667" stroke-linecap="round"></line>
        <path d="M329.955556,301.866667 C329.955556,301.866667 417.6,260.622222 392.131556,202.364444 C352.124444,142.044444 257.777778,183.288889 232,250.311111 L232,271.964444 L232,250.311111 C206.222222,183.288889 111.875556,142.044444 71.8684444,202.364444 C46.4,260.622222 134.044444,301.866667 134.044444,301.866667" id="Path" stroke="#F2F2F2" stroke-width="15.4666667" stroke-linecap="round" stroke-linejoin="round"></path>
        <path d="M128.888889,307.022222 C185.6,276.088889 278.4,276.088889 335.111111,307.022222 M128.888889,343.111111 C185.6,312.177778 278.4,312.177778 335.111111,343.111111 M128.888889,379.2 C185.6,348.266667 278.4,348.266667 335.111111,379.2" id="Shape" stroke="#F2F2F2" stroke-width="15.4666667" stroke-linecap="round" stroke-linejoin="round"></path>
    </g>
</svg>