<?xml version="1.0" encoding="UTF-8"?>
<svg width="464px" height="464px" viewBox="0 0 464 464" version="1.1" xmlns="http://www.w3.org/2000/svg" xmlns:xlink="http://www.w3.org/1999/xlink">
    <title>pieces/white-pawn</title>
    <g id="pieces/white-pawn" stroke="none" stroke-width="1" fill="none" fill-rule="evenodd" stroke-linecap="round">
        <path d="M232,80.1777778 C209.212444,80.1777778 190.755556,98.6346667 190.755556,121.422222 C190.755556,130.599111 193.745778,139.054222 198.798222,145.962667 C178.691556,157.511111 164.977778,179.061333 164.977778,203.911111 C164.977778,224.842667 174.670222,243.505778 189.827556,255.776 C158.894222,266.705778 113.422222,313.002667 113.422222,394.666667 L350.577778,394.666667 C350.577778,313.002667 305.105778,266.705778 274.172444,255.776 C289.329778,243.505778 299.022222,224.842667 299.022222,203.911111 C299.022222,179.061333 285.308444,157.511111 265.201778,145.962667 C270.254222,139.054222 273.244444,130.599111 273.244444,121.422222 C273.244444,98.6346667 254.787556,80.1777778 232,80.1777778 Z" id="Path" stroke="#333333" stroke-width="15.4666667" fill="#FFFFFF" fill-rule="nonzero"></path>
    </g>
</svg>