<?xml version="1.0" encoding="UTF-8"?>
<svg width="464px" height="464px" viewBox="0 0 464 464" version="1.1" xmlns="http://www.w3.org/2000/svg" xmlns:xlink="http://www.w3.org/1999/xlink">
    <title>pieces/white-bishop</title>
    <g id="pieces/white-bishop" stroke="none" stroke-width="1" fill="none" fill-rule="evenodd">
        <path d="M92.8,379.2 C127.754667,369.198222 197.045333,383.633778 232,358.577778 C266.954667,383.633778 336.245333,369.198222 371.2,379.2 C371.2,379.2 388.213333,384.768 402.133333,399.822222 C395.121778,409.824 385.12,410.030222 371.2,404.977778 C336.245333,394.976 266.954667,409.720889 232,394.666667 C197.045333,409.720889 127.754667,394.976 92.8,404.977778 C78.88,410.030222 68.8782222,409.824 61.8666667,399.822222 C75.7866667,384.768 92.8,379.2 92.8,379.2 Z" id="Path" stroke="#333333" stroke-width="15.4666667" fill="#FFFFFF" fill-rule="nonzero" stroke-linejoin="round"></path>
        <path d="M154.666667,337.955556 C180.444444,363.733333 283.555556,363.733333 309.333333,337.955556 C314.488889,322.488889 309.333333,317.333333 309.333333,317.333333 C309.333333,291.555556 283.555556,276.088889 283.555556,276.088889 C340.266667,260.622222 345.422222,157.511111 232,116.266667 C118.577778,157.511111 123.733333,260.622222 180.444444,276.088889 C180.444444,276.088889 154.666667,291.555556 154.666667,317.333333 C154.666667,317.333333 149.511111,322.488889 154.666667,337.955556 Z" id="Path" stroke="#333333" stroke-width="15.4666667" fill="#FFFFFF" fill-rule="nonzero" stroke-linejoin="round"></path>
        <path d="M257.777778,90.4888889 C257.777778,104.725562 246.236674,116.266667 232,116.266667 C217.763326,116.266667 206.222222,104.725562 206.222222,90.4888889 C206.222222,76.2522153 217.763326,64.7111111 232,64.7111111 C246.236674,64.7111111 257.777778,76.2522153 257.777778,90.4888889 Z" id="Path" stroke="#333333" stroke-width="15.4666667" fill="#FFFFFF" fill-rule="nonzero" stroke-linejoin="round"></path>
        <line x1="180.444444" y1="276.088889" x2="283.555556" y2="276.088889" id="Path" stroke="#333333" stroke-width="15.4666667" stroke-linecap="round"></line>
        <line x1="154.666667" y1="317.333333" x2="309.333333" y2="317.333333" id="Path" stroke="#333333" stroke-width="15.4666667" stroke-linecap="round"></line>
        <line x1="232" y1="167.822222" x2="232" y2="219.377778" id="Path" stroke="#333333" stroke-width="15.4666667" stroke-linecap="round"></line>
        <line x1="206.222222" y1="193.6" x2="257.777778" y2="193.6" id="Path" stroke="#333333" stroke-width="15.4666667" stroke-linecap="round"></line>
    </g>
</svg>