<?xml version="1.0" encoding="UTF-8"?>
<svg width="464px" height="464px" viewBox="0 0 464 464" version="1.1" xmlns="http://www.w3.org/2000/svg" xmlns:xlink="http://www.w3.org/1999/xlink">
    <title>pieces/white-knight</title>
    <g id="pieces/white-knight" stroke="none" stroke-width="1" fill="none" fill-rule="evenodd" stroke-linecap="round" stroke-linejoin="round">
        <path d="M226.844444,111.111111 C335.111111,121.422222 396.977778,193.6 391.822222,410.133333 L154.666667,410.133333 C154.666667,317.333333 257.777778,343.111111 237.155556,193.6" id="Path" stroke="#333333" stroke-width="15.4666667" fill="#FFFFFF" fill-rule="nonzero"></path>
        <path d="M247.466667,193.6 C251.384889,223.605333 190.24,269.592889 164.977778,286.4 C134.044444,307.022222 136,324 113.422222,327.644444 C124,328 88,328 100,328 C89.6888889,328 61.8357333,327.644444 61.8658147,276.088889 C61.8658147,255.466667 123.733333,152.355556 123.733333,152.355556 C123.733333,152.355556 143.221333,132.764444 144.355556,116.266667 C136.828444,106.017422 139.2,95.6444444 139.2,85.3333333 C149.511111,75.0222222 170.133333,111.111111 170.133333,111.111111 L190.755556,111.111111 C190.755556,111.111111 198.798222,90.5713778 216.533333,80.1777778 C226.844444,80.1777778 226.844444,111.111111 226.844444,111.111111" id="Path" stroke="#333333" stroke-width="15.4666667" fill="#FFFFFF" fill-rule="nonzero"></path>
        <path d="M97.9555556,270.933333 C97.9555556,273.780668 95.6473347,276.088889 92.8,276.088889 C89.9526653,276.088889 87.6444444,273.780668 87.6444444,270.933333 C87.6444444,268.085999 89.9526653,265.777778 92.8,265.777778 C95.6473347,265.777778 97.9555556,268.085999 97.9555556,270.933333 Z" id="Path" stroke="#333333" stroke-width="15.4666667" fill="#333333" fill-rule="nonzero"></path>
        <path d="M154.666553,167.822222 C154.666553,176.364038 152.358383,183.288549 149.511111,183.288549 C146.663839,183.288549 144.355669,176.364038 144.355669,167.822222 C144.355669,159.280406 146.663839,152.355896 149.511111,152.355896 C152.358383,152.355896 154.666553,159.280406 154.666553,167.822222 L154.666553,167.822222 Z" id="Path" stroke="#333333" stroke-width="15.4663264" fill="#333333" fill-rule="nonzero" transform="translate(149.511111, 167.822222) rotate(30.000728) translate(-149.511111, -167.822222) "></path>
    </g>
</svg>