<?xml version="1.0" encoding="UTF-8"?>
<svg width="464px" height="464px" viewBox="0 0 464 464" version="1.1" xmlns="http://www.w3.org/2000/svg" xmlns:xlink="http://www.w3.org/1999/xlink">
    <title>pieces/white-queen</title>
    <g id="pieces/white-queen" stroke="none" stroke-width="1" fill="none" fill-rule="evenodd" stroke-linejoin="round">
        <path d="M82.4888889,131.733333 C82.4888889,143.122672 73.2560055,152.355556 61.8666667,152.355556 C50.4773278,152.355556 41.2444444,143.122672 41.2444444,131.733333 C41.2444444,120.343994 50.4773278,111.111111 61.8666667,111.111111 C73.2560055,111.111111 82.4888889,120.343994 82.4888889,131.733333 Z" id="Path" stroke="#333333" stroke-width="15.4666667" fill="#FFFFFF" stroke-linecap="round"></path>
        <path d="M252.622222,85.3333333 C252.622222,96.7226722 243.389339,105.955556 232,105.955556 C220.610661,105.955556 211.377778,96.7226722 211.377778,85.3333333 C211.377778,73.9439945 220.610661,64.7111111 232,64.7111111 C243.389339,64.7111111 252.622222,73.9439945 252.622222,85.3333333 Z" id="Path" stroke="#333333" stroke-width="15.4666667" fill="#FFFFFF" stroke-linecap="round"></path>
        <path d="M422.755556,131.733333 C422.755556,143.122672 413.522672,152.355556 402.133333,152.355556 C390.743994,152.355556 381.511111,143.122672 381.511111,131.733333 C381.511111,120.343994 390.743994,111.111111 402.133333,111.111111 C413.522672,111.111111 422.755556,120.343994 422.755556,131.733333 Z" id="Path" stroke="#333333" stroke-width="15.4666667" fill="#FFFFFF" stroke-linecap="round"></path>
        <path d="M164.977778,100.8 C164.977778,112.189339 155.744894,121.422222 144.355556,121.422222 C132.966217,121.422222 123.733333,112.189339 123.733333,100.8 C123.733333,89.4106612 132.966217,80.1777778 144.355556,80.1777778 C155.744894,80.1777778 164.977778,89.4106612 164.977778,100.8 Z" id="Path" stroke="#333333" stroke-width="15.4666667" fill="#FFFFFF" stroke-linecap="round"></path>
        <path d="M340.266667,100.8 C340.266667,112.189339 331.033783,121.422222 319.644444,121.422222 C308.255106,121.422222 299.022222,112.189339 299.022222,100.8 C299.022222,89.4106612 308.255106,80.1777778 319.644444,80.1777778 C331.033783,80.1777778 340.266667,89.4106612 340.266667,100.8 Z" id="Path" stroke="#333333" stroke-width="15.4666667" fill="#FFFFFF" stroke-linecap="round"></path>
        <path d="M92.8,276.088889 C180.444444,260.622222 283.555556,260.622222 371.2,276.088889 L391.822222,152.355556 L319.644444,265.777778 L319.644444,121.422222 L262.933333,260.622222 L232,105.955556 L201.066667,260.622222 L144.355556,121.422222 L144.355556,265.777778 L72.1777778,152.355556 L92.8,276.088889 Z" id="Path" stroke="#333333" stroke-width="15.4666667" fill="#FFFFFF"></path>
        <path d="M92.8,276.088889 C92.8,296.711111 108.266667,296.711111 118.577778,317.333333 C128.888889,332.8 128.888889,327.644444 123.733333,353.422222 C108.266667,363.733333 113.422222,379.2 113.422222,379.2 C97.9555556,394.666667 113.422222,404.977778 113.422222,404.977778 C180.444444,415.288889 283.555556,415.288889 350.577778,404.977778 C350.577778,404.977778 366.044444,394.666667 350.577778,379.2 C350.577778,379.2 355.733333,363.733333 340.266667,353.422222 C335.111111,327.644444 335.111111,332.8 345.422222,317.333333 C355.733333,296.711111 371.2,296.711111 371.2,276.088889 C283.555556,260.622222 180.444444,260.622222 92.8,276.088889 Z" id="Path" stroke="#333333" stroke-width="15.4666667" fill="#FFFFFF"></path>
        <path d="M118.577778,317.333333 C154.666667,307.022222 309.333333,307.022222 345.422222,317.333333" id="Path" stroke="#333333" stroke-width="15.4666667" stroke-linecap="round"></path>
        <path d="M123.733333,353.422222 C185.6,343.111111 278.4,343.111111 340.266667,353.422222" id="Path" stroke="#333333" stroke-width="15.4666667" stroke-linecap="round"></path>
    </g>
</svg>